<?xml version="1.0" encoding="UTF-8" standalone="no"?>
<svg
   width="79"
   height="52"
   viewBox="-10 -10 79 52"
   version="1.1"
   id="svg8"
   sodipodi:docname="logo-cvx.svg"
   inkscape:version="1.1 (c68e22c387, 2021-05-23)"
   inkscape:export-filename="/home/ferox/Projects/GitHub/cvxrio.github.io/assets/logos/logo-cvx.png"
   inkscape:export-xdpi="120"
   inkscape:export-ydpi="120"
   xmlns:inkscape="http://www.inkscape.org/namespaces/inkscape"
   xmlns:sodipodi="http://sodipodi.sourceforge.net/DTD/sodipodi-0.dtd"
   xmlns="http://www.w3.org/2000/svg"
   xmlns:svg="http://www.w3.org/2000/svg">
  <defs
     id="defs12">
    <rect
       x="64.640007"
       y="46.578831"
       width="169.20473"
       height="83.651779"
       id="rect48970" />
  </defs>
  <sodipodi:namedview
     id="namedview10"
     pagecolor="#ffffff"
     bordercolor="#666666"
     borderopacity="1.0"
     inkscape:pageshadow="2"
     inkscape:pageopacity="0.0"
     inkscape:pagecheckerboard="0"
     showgrid="false"
     inkscape:zoom="11.354503"
     inkscape:cx="41.217127"
     inkscape:cy="22.45805"
     inkscape:window-width="1920"
     inkscape:window-height="1021"
     inkscape:window-x="0"
     inkscape:window-y="30"
     inkscape:window-maximized="1"
     inkscape:current-layer="g60661"
     width="63px" />
  <g
     id="g60661"
     style="font-size:40px;line-height:1.25;white-space:pre;shape-inside:url(#rect10655);stroke:#000000;stroke-width:1.00381;stroke-miterlimit:4;stroke-dasharray:none;stroke-opacity:1"
     transform="matrix(0.07494811,0,0,0.06213466,16.173683,0.982264)">
    <path
       style="color:#000000;font-size:40px;line-height:1.25;-inkscape-font-specification:Desyrel;white-space:pre;shape-inside:url(#rect10655);fill:#000000;stroke:#000000;stroke-width:12.3664;stroke-miterlimit:4;stroke-dasharray:none;stroke-opacity:1"
       d="m -191.51138,532.10875 c -12.9095,2.91372 -24.518,4.56213 -34.82547,4.94514 -6.34302,0.23547 -12.38445,0.0543 -18.12478,-0.5423 -5.74009,-0.59796 -11.31071,-1.60785 -16.71202,-3.02957 -9.5928,-1.6716 -16.63943,-5.26326 -21.13992,-10.77488 -4.46328,-5.9186 -7.51203,-12.90379 -9.14627,-20.95562 -1.18005,-7.25762 -1.26758,-16.38116 -0.26258,-27.37072 1.07943,-11.80347 3.10253,-23.84496 6.06924,-36.12421 3.26823,-12.69614 6.76352,-24.99502 10.48592,-36.89685 5.56496,-17.64907 13.11215,-35.37197 22.64155,-53.16853 9.52942,-17.79656 19.75863,-34.60495 30.68765,-50.42512 10.92906,-15.82048 34.50834,-56.46594 45.93249,-69.05954 4.66452,-5.19351 37.49144,-63.31293 45.33694,-14.99076 37.769271,137.54478 40.095991,-86.52541 -14.4734,-73.12026 -13.58129,3.33641 -16.32668,7.05118 -30.95585,23.00897 -14.36489,15.94813 -49.52935,70.81588 -63.17205,90.38773 -13.60551,19.16503 -26.26547,39.51162 -37.97991,61.04008 -11.71447,21.52846 -21.44671,42.9832 -29.19674,64.36427 -5.98191,16.44783 -11.05737,33.06466 -15.22639,49.85045 -4.16907,16.78604 -6.97945,33.11598 -8.43113,48.98977 -0.81888,8.95438 -1.09057,17.68561 -0.81502,26.19355 0.2755,8.50809 1.24898,16.58467 2.92045,24.22942 2.77704,15.71659 8.1747,28.69905 16.19294,38.94755 8.28258,10.23848 20.77147,17.68431 37.46675,22.33688 11.8226,3.21115 27.30785,7.95905 43.69413,7.34997 12.68614,-0.47145 24.18319,-1.80254 38.71566,-5.18212 14.53247,-3.3798 36.26568,-17.48513 49.1021,-27.74001 35.63263,-28.46645 60.790522,-76.29904 72.729748,-96.31556 53.056823,-88.95175 47.631501,-120.02023 -17.000647,-29.7471 -37.501911,57.13626 -72.072791,85.56083 -104.513461,93.8001 z"
       id="path15021"
       sodipodi:nodetypes="csscccsccssccsccscssscccssssccc" />
    <path
       d="m 108.91575,441.85084 q 0,-8.76679 -3.55107,-15.34203 -3.55111,-7.12287 -11.442402,-7.12287 -0.78909,0 -1.57819,0.54789 -0.39498,0 -1.18371,0 h -8.285839 q -3.551242,0 -5.129431,-0.54789 -2.367428,-6.0272 -6.707649,-10.41063 -4.34022,-4.38345 -10.258693,-4.38345 -4.734654,0 -8.285838,2.73958 -14.204263,7.67106 -14.204263,26.30045 0,9.86265 3.551069,16.43789 -5.523877,20.82108 -12.231454,41.64226 -6.707634,20.82124 -14.20431,38.35485 -1.972807,4.93123 -3.551063,6.57503 -1.183692,1.09588 -2.3673811,1.64386 -0.7891343,0 -4.7347903,-8.76683 v 0.54789 Q 2.7779176,526.23148 0.80509256,520.20423 -0.7731654,513.6291 -1.9568614,507.60195 h 0.39455 q -3.1565149,-13.15022 -5.1293459,-27.39632 -1.972824,-14.24599 -3.5510807,-27.39616 -1.578258,-13.69822 -2.367393,-25.20463 -0.789129,-12.05445 -1.183683,-20.27335 -1.183708,-13.69816 -5.918479,-19.17732 -4.734771,-5.47926 -10.653246,-6.0272 h -0.789128 q -6.707603,0 -12.231619,6.0272 -5.129333,6.02715 -6.707603,18.62944 0,1.09582 0,2.19164 0,0.54851 -0.789123,3.28762 0,1.09582 -0.394609,1.09582 0,-0.54851 -0.394549,0 0,0 0,1.64381 0,1.64371 0,6.57504 0,4.38344 0.394549,8.76693 0.789129,4.38345 2.761953,7.12292 1.972819,21.917 4.340217,44.382 2.761953,21.917 7.496823,41.6422 2.761952,10.95869 6.313033,21.91727 3.551083,10.95847 6.707603,19.17732 15.3880297,34.51935 33.5380119,34.51935 18.5445041,0 33.9325231,-37.80687 7.891218,-19.17742 15.782509,-44.93004 8.28577,-25.75235 14.20431,-46.57353 1.972866,0.54794 3.945674,0.54794 1.972751,0 3.945617,0 2.762089,0 5.129388,0 2.761957,0 4.734887,-0.54794 9.075002,-1.64381 13.020542,-9.8627 4.34023,-8.76684 4.34023,-18.08155 z"
       style="font-size:40px;line-height:1.25;font-family:Desyrel;-inkscape-font-specification:Desyrel;white-space:pre;shape-inside:url(#rect10655);stroke:#000000;stroke-width:11.7175;stroke-miterlimit:4;stroke-dasharray:none;stroke-opacity:1"
       id="path15023" />
    <path
       d="m 235.93172,569.75582 q -1.10745,-5.08941 0.79591,-12.65398 0.95973,-2.58102 0.84371,-5.44631 -0.11714,-2.86498 -0.72157,-5.64084 -2.41642,-11.10343 -14.6887,-20.88357 -8.05226,-6.70402 -19.61946,-13.24576 -11.56732,-6.54174 -26.16154,-13.01017 -8.29792,15.47054 -16.10788,30.85164 -7.70943,15.84394 -14.54403,31.04644 -4.8144,10.503 -9.44322,19.52884 -5.01577,9.57743 -9.25754,18.0515 -3.28198,5.89262 -7.26888,8.54683 -4.47457,2.74359 -8.86416,3.54719 -8.77939,1.60765 -15.252042,-2.49955 l 0.48815,-0.0888 q -4.60682,-2.52418 -8.43947,-6.15222 -3.731915,-3.16532 -4.839513,-8.25439 -0.604519,-2.77591 -0.333746,-6.19275 0.270558,-3.41716 2.492187,-7.19152 l 0.103416,0.46266 q 7.523706,-14.36649 16.781238,-32.4181 8.76995,-17.96228 17.92669,-36.47656 3.85488,-7.92186 7.32243,-15.29178 3.56827,-6.9074 7.13667,-13.8147 -3.91765,-1.68815 -9.39909,-3.57092 -5.48155,-1.88277 -11.45077,-3.67655 -8.22231,-2.8242 -16.057552,-6.20039 -8.22233,-2.82449 -14.392884,-5.54352 -10.003412,-6.34672 -11.916617,-15.13689 -2.013915,-9.25289 3.791851,-17.53191 5.317938,-8.18987 14.87126,-10.90119 l 2.43839,-0.44746 q 4.38958,-0.80406 9.267062,-1.69647 4.97791,-0.43006 9.38344,1.16854 8.32292,3.28692 11.51364,13.28653 3.91765,1.68814 10.37463,3.39237 6.06997,2.2562 13.70369,4.70724 1.66484,0.65672 3.81706,1.22562 1.76533,1.11992 4.01833,2.15068 11.47911,-21.82585 20.3495,-39.32543 8.97132,-17.03694 16.49508,-31.40357 7.52376,-14.36647 14.57552,-26.24124 7.05171,-11.87463 13.81711,-22.73493 7.74082,-11.03886 19.44653,-13.18185 9.75465,-1.78608 18.48033,3.35146 8.62509,4.67499 10.94103,15.31588 0.90669,4.16365 0.82073,6.10365 -0.72693,8.31135 -6.44749,14.65059 -5.13241,6.71256 -11.75922,8.8881 -14.77689,25.31584 -29.35247,51.55719 -14.47473,26.70397 -25.26468,49.36579 15.38408,7.76713 29.30503,15.80222 13.43312,8.12427 25.50387,16.97904 12.86049,10.1535 19.96876,21.8411 7.59616,11.59841 10.21422,23.62711 1.91304,8.79035 1.18632,17.1018 -0.23949,8.22207 -2.73137,15.41348 -2.4922,7.1913 -6.86613,10.39761 -4.37385,3.20596 -9.73891,4.18833 -7.8038,1.4286 -14.56289,-1.66343 -10.37457,-3.39242 -12.69061,-14.03327 z"
       style="font-size:40px;line-height:1.25;font-family:Desyrel;-inkscape-font-specification:Desyrel;white-space:pre;shape-inside:url(#rect10655);stroke:#000000;stroke-width:12.2071;stroke-miterlimit:4;stroke-dasharray:none;stroke-opacity:1"
       id="path15025" />
    <text
       xml:space="preserve"
       transform="matrix(1.7831224,0.97686809,-1.0572958,1.9343015,226.33614,199.38524)"
       id="text48968"
       style="font-style:normal;font-weight:normal;font-size:40px;line-height:1.25;font-family:sans-serif;white-space:pre;shape-inside:url(#rect48970);fill:#000000;fill-opacity:1;stroke:#000000;stroke-width:0.999776;stroke-miterlimit:4;stroke-dasharray:none;stroke-opacity:1"><tspan
         x="64.640625"
         y="81.96875"
         id="tspan588"><tspan
           style="font-family:Desyrel;-inkscape-font-specification:Desyrel"
           id="tspan586">RIO</tspan></tspan></text>
    <path
       d="m 49.252369,14.13593 h 26.784394 c 4.724289,7.71617 14.813776,18.393559 35.647117,32.133232 30.728,20.276388 84.31961,23.83995 102.99774,24.463574 10.0559,14.138578 25.68393,19.515834 36.28939,21.570201 L 240.80088,263.35391 c -0.30904,5.2536 3.06086,10.02984 8.15196,11.52839 l 145.07402,64.09466 c 1.10045,0.32843 10.81366,4.69204 11.90336,4.69204 4.94194,0 9.37455,0.19019 10.86465,-4.723 1.81126,-6.01418 4.76319,-14.20739 -2.56637,-17.85584 l -150.00235,-65.37264 5.97387,-100.418 c 36.01395,55.2698 82.36999,72.88018 84.6757,73.71921 1.30737,0.47603 2.63758,0.7034 3.95572,0.7034 4.64365,0 9.01188,-2.83622 10.73174,-7.39838 2.20092,-5.85461 -0.825,-12.39002 -6.74243,-14.59199 -0.57375,-0.21541 -58.16676,-22.3414 -90.05301,-95.6524 L 278.5468,14.804762 C 278.9257,8.5419351 274.09796,3.1739874 267.7801,2.8109828 261.53078,2.3229875 256.02717,7.2135775 255.66034,13.465767 l -3.32553,55.825588 c -7.16571,-1.826991 -16.28105,-5.809404 -20.83335,-14.841957 -1.94965,-3.846785 -5.9161,-6.274794 -10.26148,-6.274794 -0.65301,0 -65.75704,-0.283224 -96.82902,-20.787016 C 100.30986,11.491182 95.620509,2.5264297 94.988979,1.0863783 94.163989,-4.3719882 89.394017,-8.5578492 83.6499,-8.5578492 H 49.252369 c -14.894395,0 -22.932131,-5.8439758 -22.932131,-11.3462218 0,-5.502246 8.037736,-11.346222 22.932131,-11.346222 17.416432,0 26.061509,7.817232 26.29127,8.022004 2.293611,2.280413 5.526447,3.494418 8.71359,3.31358 L 302.10777,-31.260931 c 6.07734,-0.317795 10.85806,-5.298804 10.85806,-11.335584 0,-0.238014 0.0121,-0.533205 0.0121,-0.783186 8.41531,7.000804 19.69798,12.129408 34.38545,12.129408 14.75599,0 26.02791,-5.163176 34.38543,-12.209189 0,0.283223 0.0121,0.601019 0.0121,0.862967 0,6.03678 4.78073,11.017789 10.85806,11.335584 l 217.85055,11.346222 c 3.1764,0.135628 6.30577,-1.078376 8.58729,-3.18859 0.35606,-0.328433 9.00114,-8.146994 26.41757,-8.146994 14.89439,0 22.93214,5.843976 22.93214,11.346222 0,5.502246 -8.03639,11.3462218 -22.92946,11.3462218 h -34.39761 c -5.74413,0 -10.51409,4.1871907 -11.33909,9.6442275 -0.63017,1.4413811 -5.31952,10.4048037 -29.42198,26.3012097 -31.07199,20.503792 -96.17602,20.787016 -96.82904,20.787016 -6.3407,0 -11.46539,5.083394 -11.46539,11.346221 0,6.274782 5.13678,11.346209 11.46539,11.346209 2.94663,0 72.693,-0.272586 109.55611,-24.599202 C 603.87881,32.52683 613.96831,21.849441 618.69259,14.1346 h 26.78438 c 30.10992,0 45.86292,-17.1223837 45.86292,-34.040001 0,-16.917612 -15.75432,-34.039989 -45.86292,-34.039989 -19.26261,0 -31.95477,6.750816 -38.16917,11.130806 L 404.40798,-53.378943 c -1.43367,-29.283702 -9.74686,-102.685097 -57.04345,-102.685097 -47.29661,0 -55.60978,73.401395 -57.04212,102.687757 L 87.422749,-42.811924 C 81.20836,-47.191914 68.516205,-53.94273 49.253589,-53.94273 19.143664,-53.94406 3.3893269,-36.823013 3.3893269,-19.904071 c 0,16.9189467 15.7543371,34.040001 45.8629191,34.040001 z M 347.3647,-133.37159 c 17.26728,0 26.74945,27.12961 31.18753,53.998591 -0.0121,0.04521 -0.0578,0.07978 -0.0685,0.135628 -0.63018,2.587572 -6.9252,25.291981 -31.11768,25.291981 -23.1834,0 -30.13276,-20.582231 -31.30173,-24.736172 4.37896,-27.095028 13.88397,-54.690028 31.3004,-54.690028 z"
       id="path57071"
       style="stroke:#000000;stroke-width:1.34175;stroke-miterlimit:4;stroke-dasharray:none;stroke-opacity:1"
       sodipodi:nodetypes="scccccccsccccssccccccccsccsssscccscscscccssssccsssccsssccscccsssccscss" />
    <path
       style="fill:#000000;fill-opacity:1;stroke:#000000;stroke-width:21.0772;stroke-linecap:round;stroke-linejoin:miter;stroke-miterlimit:4;stroke-dasharray:none;stroke-opacity:1"
       d="m 444.03778,9.3509632 0.93011,600.6277168 v 0"
       id="path57953" />
  </g>
</svg>
