<?xml version="1.0" encoding="UTF-8" standalone="no"?>
<svg
   width="79"
   height="52"
   viewBox="-10 -10 79 52"
   version="1.1"
   id="svg8"
   sodipodi:docname="logo-cvx.svg"
   inkscape:version="1.1 (c68e22c387, 2021-05-23)"
   inkscape:export-filename="/home/ferox/Projects/GitHub/cvxrio.github.io/assets/logos/logo-cvx.png"
   inkscape:export-xdpi="120"
   inkscape:export-ydpi="120"
   xmlns:inkscape="http://www.inkscape.org/namespaces/inkscape"
   xmlns:sodipodi="http://sodipodi.sourceforge.net/DTD/sodipodi-0.dtd"
   xmlns="http://www.w3.org/2000/svg"
   xmlns:svg="http://www.w3.org/2000/svg">
  <defs
     id="defs12">
    <rect
       x="64.640007"
       y="46.578831"
       width="169.20473"
       height="83.651779"
       id="rect48970" />
  </defs>
  <sodipodi:namedview
     id="namedview10"
     pagecolor="#ffffff"
     bordercolor="#666666"
     borderopacity="1.0"
     inkscape:pageshadow="2"
     inkscape:pageopacity="0.0"
     inkscape:pagecheckerboard="0"
     showgrid="false"
     inkscape:zoom="4.014423"
     inkscape:cx="48.699402"
     inkscape:cy="41.6"
     inkscape:window-width="1920"
     inkscape:window-height="1021"
     inkscape:window-x="0"
     inkscape:window-y="30"
     inkscape:window-maximized="1"
     inkscape:current-layer="text48968"
     width="63px" />
  <g
     id="g60661"
     style="font-size:40px;line-height:1.25;white-space:pre;shape-inside:url(#rect10655);stroke:#000000;stroke-width:1.00381;stroke-miterlimit:4;stroke-dasharray:none;stroke-opacity:1"
     transform="matrix(0.07494811,0,0,0.06213466,16.173683,0.982264)">
    <path
       style="color:#000000;font-size:40px;line-height:1.25;-inkscape-font-specification:Desyrel;white-space:pre;shape-inside:url(#rect10655);fill:#000000;stroke:#000000;stroke-width:12.3664;stroke-miterlimit:4;stroke-dasharray:none;stroke-opacity:1"
       d="m -191.51138,532.10875 c -12.9095,2.91372 -24.518,4.56213 -34.82547,4.94514 -6.34302,0.23547 -12.38445,0.0543 -18.12478,-0.5423 -5.74009,-0.59796 -11.31071,-1.60785 -16.71202,-3.02957 -9.5928,-1.6716 -16.63943,-5.26326 -21.13992,-10.77488 -4.46328,-5.9186 -7.51203,-12.90379 -9.14627,-20.95562 -1.18005,-7.25762 -1.26758,-16.38116 -0.26258,-27.37072 1.07943,-11.80347 3.10253,-23.84496 6.06924,-36.12421 3.26823,-12.69614 6.76352,-24.99502 10.48592,-36.89685 5.56496,-17.64907 13.11215,-35.37197 22.64155,-53.16853 9.52942,-17.79656 19.75863,-34.60495 30.68765,-50.42512 10.92906,-15.82048 34.50834,-56.46594 45.93249,-69.05954 4.66452,-5.19351 37.49144,-63.31293 45.33694,-14.99076 37.769271,137.54478 40.095991,-86.52541 -14.4734,-73.12026 -13.58129,3.33641 -16.32668,7.05118 -30.95585,23.00897 -14.36489,15.94813 -49.52935,70.81588 -63.17205,90.38773 -13.60551,19.16503 -26.26547,39.51162 -37.97991,61.04008 -11.71447,21.52846 -21.44671,42.9832 -29.19674,64.36427 -5.98191,16.44783 -11.05737,33.06466 -15.22639,49.85045 -4.16907,16.78604 -6.97945,33.11598 -8.43113,48.98977 -0.81888,8.95438 -1.09057,17.68561 -0.81502,26.19355 0.2755,8.50809 1.24898,16.58467 2.92045,24.22942 2.77704,15.71659 8.1747,28.69905 16.19294,38.94755 8.28258,10.23848 20.77147,17.68431 37.46675,22.33688 11.8226,3.21115 27.30785,7.95905 43.69413,7.34997 12.68614,-0.47145 24.18319,-1.80254 38.71566,-5.18212 14.53247,-3.3798 36.26568,-17.48513 49.1021,-27.74001 35.63263,-28.46645 60.790522,-76.29904 72.729748,-96.31556 53.056823,-88.95175 47.631501,-120.02023 -17.000647,-29.7471 -37.501911,57.13626 -72.072791,85.56083 -104.513461,93.8001 z"
       id="path15021"
       sodipodi:nodetypes="csscccsccssccsccscssscccssssccc" />
    <path
       d="m 108.91575,441.85084 q 0,-8.76679 -3.55107,-15.34203 -3.55111,-7.12287 -11.442402,-7.12287 -0.78909,0 -1.57819,0.54789 -0.39498,0 -1.18371,0 h -8.285839 q -3.551242,0 -5.129431,-0.54789 -2.367428,-6.0272 -6.707649,-10.41063 -4.34022,-4.38345 -10.258693,-4.38345 -4.734654,0 -8.285838,2.73958 -14.204263,7.67106 -14.204263,26.30045 0,9.86265 3.551069,16.43789 -5.523877,20.82108 -12.231454,41.64226 -6.707634,20.82124 -14.20431,38.35485 -1.972807,4.93123 -3.551063,6.57503 -1.183692,1.09588 -2.3673811,1.64386 -0.7891343,0 -4.7347903,-8.76683 v 0.54789 Q 2.7779176,526.23148 0.80509256,520.20423 -0.7731654,513.6291 -1.9568614,507.60195 h 0.39455 q -3.1565149,-13.15022 -5.1293459,-27.39632 -1.972824,-14.24599 -3.5510807,-27.39616 -1.578258,-13.69822 -2.367393,-25.20463 -0.789129,-12.05445 -1.183683,-20.27335 -1.183708,-13.69816 -5.918479,-19.17732 -4.734771,-5.47926 -10.653246,-6.0272 h -0.789128 q -6.707603,0 -12.231619,6.0272 -5.129333,6.02715 -6.707603,18.62944 0,1.09582 0,2.19164 0,0.54851 -0.789123,3.28762 0,1.09582 -0.394609,1.09582 0,-0.54851 -0.394549,0 0,0 0,1.64381 0,1.64371 0,6.57504 0,4.38344 0.394549,8.76693 0.789129,4.38345 2.761953,7.12292 1.972819,21.917 4.340217,44.382 2.761953,21.917 7.496823,41.6422 2.761952,10.95869 6.313033,21.91727 3.551083,10.95847 6.707603,19.17732 15.3880297,34.51935 33.5380119,34.51935 18.5445041,0 33.9325231,-37.80687 7.891218,-19.17742 15.782509,-44.93004 8.28577,-25.75235 14.20431,-46.57353 1.972866,0.54794 3.945674,0.54794 1.972751,0 3.945617,0 2.762089,0 5.129388,0 2.761957,0 4.734887,-0.54794 9.075002,-1.64381 13.020542,-9.8627 4.34023,-8.76684 4.34023,-18.08155 z"
       style="font-size:40px;line-height:1.25;font-family:Desyrel;-inkscape-font-specification:Desyrel;white-space:pre;shape-inside:url(#rect10655);stroke:#000000;stroke-width:11.7175;stroke-miterlimit:4;stroke-dasharray:none;stroke-opacity:1"
       id="path15023" />
    <path
       d="m 235.93172,569.75582 q -1.10745,-5.08941 0.79591,-12.65398 0.95973,-2.58102 0.84371,-5.44631 -0.11714,-2.86498 -0.72157,-5.64084 -2.41642,-11.10343 -14.6887,-20.88357 -8.05226,-6.70402 -19.61946,-13.24576 -11.56732,-6.54174 -26.16154,-13.01017 -8.29792,15.47054 -16.10788,30.85164 -7.70943,15.84394 -14.54403,31.04644 -4.8144,10.503 -9.44322,19.52884 -5.01577,9.57743 -9.25754,18.0515 -3.28198,5.89262 -7.26888,8.54683 -4.47457,2.74359 -8.86416,3.54719 -8.77939,1.60765 -15.252042,-2.49955 l 0.48815,-0.0888 q -4.60682,-2.52418 -8.43947,-6.15222 -3.731915,-3.16532 -4.839513,-8.25439 -0.604519,-2.77591 -0.333746,-6.19275 0.270558,-3.41716 2.492187,-7.19152 l 0.103416,0.46266 q 7.523706,-14.36649 16.781238,-32.4181 8.76995,-17.96228 17.92669,-36.47656 3.85488,-7.92186 7.32243,-15.29178 3.56827,-6.9074 7.13667,-13.8147 -3.91765,-1.68815 -9.39909,-3.57092 -5.48155,-1.88277 -11.45077,-3.67655 -8.22231,-2.8242 -16.057552,-6.20039 -8.22233,-2.82449 -14.392884,-5.54352 -10.003412,-6.34672 -11.916617,-15.13689 -2.013915,-9.25289 3.791851,-17.53191 5.317938,-8.18987 14.87126,-10.90119 l 2.43839,-0.44746 q 4.38958,-0.80406 9.267062,-1.69647 4.97791,-0.43006 9.38344,1.16854 8.32292,3.28692 11.51364,13.28653 3.91765,1.68814 10.37463,3.39237 6.06997,2.2562 13.70369,4.70724 1.66484,0.65672 3.81706,1.22562 1.76533,1.11992 4.01833,2.15068 11.47911,-21.82585 20.3495,-39.32543 8.97132,-17.03694 16.49508,-31.40357 7.52376,-14.36647 14.57552,-26.24124 7.05171,-11.87463 13.81711,-22.73493 7.74082,-11.03886 19.44653,-13.18185 9.75465,-1.78608 18.48033,3.35146 8.62509,4.67499 10.94103,15.31588 0.90669,4.16365 0.82073,6.10365 -0.72693,8.31135 -6.44749,14.65059 -5.13241,6.71256 -11.75922,8.8881 -14.77689,25.31584 -29.35247,51.55719 -14.47473,26.70397 -25.26468,49.36579 15.38408,7.76713 29.30503,15.80222 13.43312,8.12427 25.50387,16.97904 12.86049,10.1535 19.96876,21.8411 7.59616,11.59841 10.21422,23.62711 1.91304,8.79035 1.18632,17.1018 -0.23949,8.22207 -2.73137,15.41348 -2.4922,7.1913 -6.86613,10.39761 -4.37385,3.20596 -9.73891,4.18833 -7.8038,1.4286 -14.56289,-1.66343 -10.37457,-3.39242 -12.69061,-14.03327 z"
       style="font-size:40px;line-height:1.25;font-family:Desyrel;-inkscape-font-specification:Desyrel;white-space:pre;shape-inside:url(#rect10655);stroke:#000000;stroke-width:12.2071;stroke-miterlimit:4;stroke-dasharray:none;stroke-opacity:1"
       id="path15025" />
    <g
       aria-label="RIO"
       transform="matrix(1.7831224,0.97686809,-1.0572958,1.9343015,232.88758,203.3943)"
       id="text48968"
       style="shape-inside:url(#rect48970);stroke-width:0.999776">
      <path
         d="m 87.479144,88.989266 q 0.1147,-0.253329 0.124439,-0.469558 0.05857,-0.153692 0.06831,-0.369931 0.03429,-0.756805 -0.394586,-1.535837 -0.377716,-0.77056 -1.389432,-1.210392 -2.074614,-0.88814 -4.590396,-2.285028 -2.462064,-1.442459 -4.968044,-3.05557 -2.50598,-1.61312 -4.802264,-3.300435 -2.242632,-1.732905 -3.878241,-3.201909 l 0.02451,-0.540572 q 1.199625,-0.29154 2.501647,-0.566126 1.304472,-0.328642 2.708891,-0.586274 2.2383,-0.446339 4.425402,-0.901156 2.240751,-0.500397 3.762275,-1.065417 5.025361,-1.618765 5.172449,-4.862195 0.142198,-3.135316 -4.328362,-6.925463 -1.942799,-1.519867 -4.253791,-2.882845 -2.257343,-1.408559 -4.780483,-2.643275 -2.471943,-1.226238 -5.153581,-2.378271 -2.681639,-1.152033 -5.365729,-2.250008 -0.392425,-0.446218 -0.9458,-0.755695 -0.550923,-0.363536 -1.114104,-0.456784 l -0.358389,-0.05934 q -1.382354,-0.228883 -2.19936,0.725103 -0.217051,0.236378 -0.387807,0.589346 -0.117104,0.307389 -0.136715,0.739847 -0.03922,0.864915 0.638325,1.84851 0.29248,0.375206 0.738556,0.775843 0.499724,0.355058 0.999449,0.710115 0.550923,0.363535 1.055552,0.610478 0.555826,0.25542 0.965412,0.323238 0.255992,0.04239 0.412038,0.01376 0.0512,0.0085 0.04875,0.06254 0.0512,0.0085 0.102394,0.01699 l -0.0512,-0.0085 q 0.558278,0.201364 1.267699,0.482215 0.711873,0.226795 1.418843,0.561704 -0.873393,2.197301 -1.215475,5.190593 -0.288427,2.947715 -0.420818,5.866802 l -0.164255,3.62183 q -1.602142,1.205229 -1.683044,2.989116 -0.04168,0.918972 0.279937,1.78917 0.321614,0.870197 1.06017,1.646041 -0.06374,1.405486 -0.188488,3.018728 -0.0711,1.567655 -0.193389,3.126835 -0.09286,0.910496 -0.180848,1.712875 -0.03678,0.810863 -0.0711,1.567655 l -0.0049,0.108119 q -0.05639,1.243317 0.633422,1.956624 0.687357,0.76737 1.555275,0.965543 0.870371,0.14412 1.614115,-0.331837 0.741292,-0.421895 0.853781,-1.764853 0.02697,-0.594622 0.06374,-1.405485 0.08797,-0.802379 0.180848,-1.712875 0.08797,-0.802379 0.124745,-1.613233 0.03922,-0.864917 0.124746,-1.613242 1.940347,1.573924 4.190335,3.144658 2.301186,1.579202 4.607277,3.050295 2.357287,1.479579 4.570786,2.71748 2.213503,1.237911 3.932182,2.012649 0.302279,0.158977 0.711872,0.2268 0.819176,0.135626 1.406874,-0.311685 0.585244,-0.393268 0.875554,-1.107683 z M 80.770796,64.023695 q -0.03432,0.756801 -1.76064,1.287912 -0.892434,0.342403 -2.145709,0.679523 -1.253275,0.33712 -2.660145,0.648808 -1.404418,0.257631 -2.862485,0.560843 -1.455617,0.249154 -2.806386,0.461205 -0.209695,0.0742 -0.41694,0.09435 -0.204793,-0.03391 -0.363292,0.04878 0.0049,-0.108117 0.0098,-0.216228 0.05856,-0.153693 0.06346,-0.261808 0.276459,-3.821105 0.516144,-6.831352 0.242136,-3.064305 0.922709,-4.422123 3.183815,1.453033 5.845842,3.037524 2.664477,1.530433 4.105098,2.7493 1.586863,1.40647 1.552541,2.16327 z"
         style="font-family:Desyrel;-inkscape-font-specification:Desyrel;stroke-width:1.31984"
         id="path1444" />
      <path
         d="m 114.85139,62.701063 q -0.0609,-0.988817 -0.71613,-1.737544 -0.65861,-0.803662 -1.77922,-0.867062 l -2.75058,-0.155619 q -1.68091,-0.0951 -3.31088,-0.18732 -1.62998,-0.09222 -3.05959,-0.227844 -0.61782,-0.965583 -1.73843,-1.028983 -0.45843,-0.02594 -0.95426,0.164982 -0.44828,0.138866 -0.6759,0.563931 L 96.148029,59.01523 q -1.069668,-0.06052 -2.034088,-0.06034 -0.96441,1.8e-4 -1.5655,0.1304 -1.15463,0.208389 -1.67095,0.890834 -0.46538,0.685327 -0.41801,1.454406 l 0.007,0.109869 q 0.0575,0.933882 0.71275,1.682609 0.65523,0.748728 1.68749,1.026101 0.41426,0.132924 0.92363,0.161742 0.40749,0.02305 0.85916,-0.06088 0.49921,-0.135985 0.83885,-0.390483 0.556918,-0.02323 1.066289,0.0056 0.5603,0.0317 1.17154,0.06628 0.45843,0.02594 0.91686,0.05187 0.50937,0.02882 0.97118,0.109689 l 0.088,1.42829 q 0.23346,3.790463 0.28686,7.953939 0.10096,4.111423 0.16113,8.384766 -0.0274,1.202794 -0.007,2.353524 0.0711,1.15362 0.0369,2.24654 -0.70973,0.0146 -1.26665,0.0378 -0.56031,-0.0317 -1.06967,-0.0605 l -2.648709,-0.14985 q -1.17154,-0.0663 -1.78635,0.66533 -0.56387,0.7345 -0.50635,1.66838 0.0575,0.93388 0.71275,1.68261 0.65861,0.80366 1.83353,0.924879 0.410878,0.078 0.818369,0.10104 0.4075,0.023 0.86593,0.049 0.5603,0.0317 1.1206,0.0634 0.61124,0.0346 1.27004,0.0171 0.30562,0.0173 0.60785,-0.0204 0.35656,0.0202 0.71312,0.0404 0.33269,0.45677 0.80465,0.70244 0.47196,0.24567 0.87946,0.26873 1.01873,0.0576 1.62677,-0.78385 2.13257,0.0112 3.91198,0.0571 1.78278,0.10087 3.10713,0.17579 1.12061,0.0634 1.68448,-0.67109 0.56725,-0.679569 0.50973,-1.613449 l -0.007,-0.10987 q -0.0575,-0.93388 -0.66181,-1.67973 -0.55336,-0.74296 -1.7249,-0.80924 l -3.15807,-0.17868 q -0.81499,-0.0461 -1.57904,-0.0893 -0.76405,-0.0432 -1.47378,-0.0286 0.0241,-1.25772 -0.006,-2.57326 -0.0336,-1.37047 -0.0198,-2.793 0.0246,-3.721119 -0.005,-7.500055 -0.0331,-3.83387 -0.24626,-7.294727 l -0.12858,-2.087502 q 0.82176,0.155978 1.78955,0.210733 1.01874,0.05764 2.03747,0.115274 l 2.39402,0.135446 q 0.61125,0.03458 1.17155,0.06628 0.60786,-0.02035 1.0629,-0.04935 1.11046,-0.101403 1.57922,-0.731795 0.51632,-0.682445 0.4588,-1.616327 z"
         style="font-family:Desyrel;-inkscape-font-specification:Desyrel;stroke-width:1.31984"
         id="path1446" />
      <path
         d="m 156.04362,87.437348 q 1.0264,-4.07274 -2.21765,-8.58731 -1.42247,-1.962395 -3.12148,-3.914226 -1.63601,-1.984489 -3.48667,-3.769181 -1.71297,-1.679029 -3.32905,-2.655902 -1.5659,-0.958619 -3.02092,-1.487876 -1.25432,-0.456256 -2.39662,-0.705026 -0.0501,-0.01825 -0.11318,0.01441 0,0 0,0 l 0.0254,-0.101891 q 0.1924,-0.763652 -0.30584,-1.611801 -0.44811,-0.829912 -1.08638,-1.33996 -0.27538,-0.211321 -0.52625,-0.302571 -0.18786,-0.123908 -0.33838,-0.178663 -0.95328,-0.346758 -1.70932,0.04515 -0.74321,0.341 -1.18767,1.235275 -2.29032,0.611884 -4.52223,2.078658 -2.2319,1.466775 -4.13941,3.385004 -1.84449,1.885574 -3.21292,4.055466 -1.3556,2.118984 -1.84314,4.053534 -1.19317,4.734561 0.82451,8.247286 1.07127,1.834646 2.86122,3.20822 1.84014,1.391831 4.29861,2.286086 4.11418,1.496514 9.76953,1.441728 1.15627,-0.02402 2.4129,-0.01154 1.25661,0.01248 2.51323,0.02496 1.25662,0.01248 2.5004,0.07587 1.25662,0.01248 2.52607,-0.02595 3.79551,-0.06438 5.95159,-1.447585 2.1689,-1.434115 2.87339,-4.012239 z m -4.84226,-1.650196 q -0.25657,1.018194 -1.37782,1.555139 -1.07105,0.555206 -3.40925,0.705064 -1.78515,0.128726 -3.74534,0.08263 -1.91001,-0.02784 -3.82002,-0.05569 -0.54023,-0.02978 -1.08044,-0.05955 -0.49005,-0.01152 -0.98009,-0.02305 -2.82711,-0.08355 -4.94949,-0.355374 -2.10956,-0.322733 -3.71511,-0.90674 -1.30449,-0.474505 -2.1808,-1.126713 -0.82613,-0.633958 -1.33726,-1.431213 -0.57297,-0.986483 -0.64192,-2.234236 -0.069,-1.247756 0.16428,-2.607896 0.26938,-1.069109 1.24471,-2.548349 0.98812,-1.530164 2.3531,-3.034395 1.41516,-1.48598 2.99253,-2.746231 1.62754,-1.242002 3.15129,-1.854843 0.22406,0.414959 0.63713,0.731937 0.42589,0.266068 0.92762,0.448571 0.5519,0.200751 0.81559,0.241115 0.62774,0.117183 1.19248,0.267029 0.61489,0.168093 1.26715,0.405342 1.35467,0.492755 2.78288,1.345715 1.42821,0.85296 2.70361,2.094947 l -0.0501,-0.01826 q 1.64998,1.711694 3.09926,3.350382 1.49946,1.656943 2.55904,3.32061 l 0.0132,-0.05079 q 1.7691,2.977694 1.38421,4.504974 z"
         style="font-family:Desyrel;-inkscape-font-specification:Desyrel;stroke-width:1.31984"
         id="path1448" />
    </g>
    <path
       d="m 49.252369,14.13593 h 26.784394 c 4.724289,7.71617 14.813776,18.393559 35.647117,32.133232 30.728,20.276388 84.31961,23.83995 102.99774,24.463574 10.0559,14.138578 25.68393,19.515834 36.28939,21.570201 L 240.80088,263.35391 c -0.30904,5.2536 3.06086,10.02984 8.15196,11.52839 l 140.91945,78.62752 c 1.10045,0.32843 21.40782,12.20903 22.49752,12.20903 4.94194,0 10.62092,-11.33587 12.11102,-16.24906 1.05739,-6.51531 -7.66612,-12.45342 -14.19917,-16.10187 l -146.05551,-77.6504 5.97387,-100.418 c 36.01395,55.2698 82.36999,72.88018 84.6757,73.71921 1.30737,0.47603 2.63758,0.7034 3.95572,0.7034 4.64365,0 9.01188,-2.83622 10.73174,-7.39838 2.20092,-5.85461 -0.825,-12.39002 -6.74243,-14.59199 -0.57375,-0.21541 -58.16676,-22.3414 -90.05301,-95.6524 L 278.5468,14.804762 C 278.9257,8.5419351 274.09796,3.1739874 267.7801,2.8109828 261.53078,2.3229875 256.02717,7.2135775 255.66034,13.465767 l -3.32553,55.825588 c -7.16571,-1.826991 -16.28105,-5.809404 -20.83335,-14.841957 -1.94965,-3.846785 -5.9161,-6.274794 -10.26148,-6.274794 -0.65301,0 -65.75704,-0.283224 -96.82902,-20.787016 C 100.30986,11.491182 95.620509,2.5264297 94.988979,1.0863783 94.163989,-4.3719882 89.394017,-8.5578492 83.6499,-8.5578492 H 49.252369 c -14.894395,0 -22.932131,-5.8439758 -22.932131,-11.3462218 0,-5.502246 8.037736,-11.346222 22.932131,-11.346222 17.416432,0 26.061509,7.817232 26.29127,8.022004 2.293611,2.280413 5.526447,3.494418 8.71359,3.31358 L 302.10777,-31.260931 c 6.07734,-0.317795 10.85806,-5.298804 10.85806,-11.335584 0,-0.238014 0.0121,-0.533205 0.0121,-0.783186 8.41531,7.000804 19.69798,12.129408 34.38545,12.129408 14.75599,0 26.02791,-5.163176 34.38543,-12.209189 0,0.283223 0.0121,0.601019 0.0121,0.862967 0,6.03678 4.78073,11.017789 10.85806,11.335584 l 217.85055,11.346222 c 3.1764,0.135628 6.30577,-1.078376 8.58729,-3.18859 0.35606,-0.328433 9.00114,-8.146994 26.41757,-8.146994 14.89439,0 22.93214,5.843976 22.93214,11.346222 0,5.502246 -8.03639,11.3462218 -22.92946,11.3462218 h -34.39761 c -5.74413,0 -10.51409,4.1871907 -11.33909,9.6442275 -0.63017,1.4413811 -5.31952,10.4048037 -29.42198,26.3012097 -31.07199,20.503792 -96.17602,20.787016 -96.82904,20.787016 -6.3407,0 -11.46539,5.083394 -11.46539,11.346221 0,6.274782 5.13678,11.346209 11.46539,11.346209 2.94663,0 72.693,-0.272586 109.55611,-24.599202 C 603.87881,32.52683 613.96831,21.849441 618.69259,14.1346 h 26.78438 c 30.10992,0 45.86292,-17.1223837 45.86292,-34.040001 0,-16.917612 -15.75432,-34.039989 -45.86292,-34.039989 -19.26261,0 -31.95477,6.750816 -38.16917,11.130806 L 404.40798,-53.378943 c -1.43367,-29.283702 -9.74686,-102.685097 -57.04345,-102.685097 -47.29661,0 -55.60978,73.401395 -57.04212,102.687757 L 87.422749,-42.811924 C 81.20836,-47.191914 68.516205,-53.94273 49.253589,-53.94273 19.143664,-53.94406 3.3893269,-36.823013 3.3893269,-19.904071 c 0,16.9189467 15.7543371,34.040001 45.8629191,34.040001 z M 347.3647,-133.37159 c 17.26728,0 26.74945,27.12961 31.18753,53.998591 -0.0121,0.04521 -0.0578,0.07978 -0.0685,0.135628 -0.63018,2.587572 -6.9252,25.291981 -31.11768,25.291981 -23.1834,0 -30.13276,-20.582231 -31.30173,-24.736172 4.37896,-27.095028 13.88397,-54.690028 31.3004,-54.690028 z"
       id="path57071"
       style="stroke:#000000;stroke-width:1.34175;stroke-miterlimit:4;stroke-dasharray:none;stroke-opacity:1"
       sodipodi:nodetypes="scccccccsccccssccccccccsccsssscccscscscccssssccsssccsssccscccsssccscssc" />
    <path
       style="fill:#000000;fill-opacity:1;stroke:#000000;stroke-width:21.0772;stroke-linecap:round;stroke-linejoin:miter;stroke-miterlimit:4;stroke-dasharray:none;stroke-opacity:1"
       d="m 444.03778,9.3509632 0.93011,600.6277168 v 0"
       id="path57953" />
  </g>
</svg>
